<svg width="25" height="25" viewBox="0 0 25 25" fill="none" xmlns="http://www.w3.org/2000/svg">
<path d="M12.5 2.08331C6.75004 2.08331 2.08337 6.74998 2.08337 12.5C2.08337 18.25 6.75004 22.9166 12.5 22.9166C18.25 22.9166 22.9167 18.25 22.9167 12.5C22.9167 6.74998 18.25 2.08331 12.5 2.08331ZM12.5 5.20831C14.2292 5.20831 15.625 6.60415 15.625 8.33331C15.625 10.0625 14.2292 11.4583 12.5 11.4583C10.7709 11.4583 9.37504 10.0625 9.37504 8.33331C9.37504 6.60415 10.7709 5.20831 12.5 5.20831ZM12.5 20C9.89587 20 7.59379 18.6666 6.25004 16.6458C6.28129 14.5729 10.4167 13.4375 12.5 13.4375C14.573 13.4375 18.7188 14.5729 18.75 16.6458C17.4063 18.6666 15.1042 20 12.5 20Z" fill="#A0A0A0"/>
</svg>
