<svg width="55" height="55" viewBox="0 0 55 55" fill="none" xmlns="http://www.w3.org/2000/svg">
<circle cx="27.5" cy="27.5" r="27.5" fill="#FFCDB8"/>
<path fill-rule="evenodd" clip-rule="evenodd" d="M30.1946 13.6813H31.6667C33.5076 13.6813 35 14.9705 35 16.5607C35 17.0912 34.8339 17.5881 34.5442 18.0149C36.6685 18.1798 38.3333 19.7217 38.3333 21.5996C38.3333 22.5143 37.9383 23.3494 37.2875 23.9843C38.8716 24.494 40 25.8123 40 27.3583C40 29.3461 38.1345 30.9575 35.8333 30.9575H20.8784L26.7094 46.0681C26.9627 46.7244 28.0373 46.7244 28.2906 46.0681L33.3761 32.8894C33.5216 32.5122 33.9936 32.3084 34.4302 32.4341C34.8668 32.5598 35.1028 32.9675 34.9572 33.3446L29.8717 46.5234C29.112 48.4922 25.888 48.4922 25.1283 46.5234L19.2094 31.1851C19.1803 31.1096 19.1665 31.0329 19.1664 30.9575C16.8654 30.9574 15 29.346 15 27.3583C15 25.8123 16.1284 24.494 17.7125 23.9843C17.0617 23.3494 16.6667 22.5143 16.6667 21.5996C16.6667 19.7217 18.3315 18.1798 20.4558 18.0149C20.1661 17.5881 20 17.0912 20 16.5607C20 14.9705 21.4924 13.6813 23.3333 13.6813H24.2136C24.278 13.3361 24.3922 12.977 24.5256 12.6322C24.7765 11.9837 25.1349 11.2883 25.5256 10.6502C25.9152 10.0139 26.3511 9.41147 26.7663 8.95555C26.9723 8.72933 27.1911 8.51938 27.4132 8.35786C27.6014 8.22094 27.9313 8.01332 28.3456 8.00067C29.0254 7.97992 29.3598 8.444 29.4845 8.6791C29.6251 8.94433 29.7027 9.27 29.7542 9.57481C29.8438 10.1053 29.884 10.7784 29.9221 11.4165C29.9286 11.5251 29.9351 11.6327 29.9417 11.7385C29.9896 12.5054 30.0464 13.1672 30.1683 13.5964C30.1774 13.6282 30.1862 13.6564 30.1946 13.6813ZM25.8274 14.3145C25.8053 14.0803 25.8853 13.6596 26.1063 13.0885C26.3226 12.5295 26.6414 11.9072 26.9989 11.3233C27.3575 10.7377 27.7408 10.214 28.0762 9.84571L28.1094 9.80957C28.1837 10.2635 28.2187 10.8452 28.2568 11.4775C28.2635 11.5889 28.2703 11.7019 28.2774 11.816C28.3233 12.5508 28.3835 13.3548 28.5497 13.9396C28.6281 14.2155 28.7617 14.5679 29.0402 14.8249C29.1959 14.9686 29.4164 15.1002 29.7045 15.1472C29.9087 15.1804 30.1013 15.1638 30.2725 15.121H31.6667C32.5871 15.121 33.3333 15.7656 33.3333 16.5607C33.3333 17.3558 32.5871 18.0004 31.6667 18.0004H30C29.5398 18.0004 29.1667 18.3226 29.1667 18.7202C29.1667 19.1178 29.5398 19.44 30 19.44H34.1667C35.5474 19.44 36.6667 20.4069 36.6667 21.5996C36.6667 22.7922 35.5474 23.7591 34.1667 23.7591H26.6667C26.2064 23.7591 25.8333 24.0814 25.8333 24.4789C25.8333 24.8765 26.2064 25.1988 26.6667 25.1988H35.8333C37.214 25.1988 38.3333 26.1656 38.3333 27.3583C38.3333 28.5509 37.214 29.5178 35.8333 29.5178H19.1667C17.786 29.5178 16.6667 28.5509 16.6667 27.3583C16.6667 26.1656 17.786 25.1988 19.1667 25.1988H21.7857C22.246 25.1988 22.619 24.8765 22.619 24.4789C22.619 24.0814 22.246 23.7591 21.7857 23.7591H20.8333C19.4526 23.7591 18.3333 22.7922 18.3333 21.5996C18.3333 20.4069 19.4526 19.44 20.8333 19.44H23.2143C23.2276 19.44 23.2408 19.4398 23.2539 19.4392C23.2803 19.4398 23.3068 19.44 23.3333 19.44H24.1667C24.6269 19.44 25 19.1178 25 18.7202C25 18.3226 24.6269 18.0004 24.1667 18.0004H23.3333C22.4129 18.0004 21.6667 17.3558 21.6667 16.5607C21.6667 15.7656 22.4129 15.121 23.3333 15.121H25C25.4602 15.121 25.8333 14.7987 25.8333 14.4012C25.8333 14.3718 25.8313 14.3429 25.8274 14.3145ZM27.9561 9.25606L27.9585 9.25972C27.9576 9.25817 27.9565 9.25662 27.9561 9.25606C27.9561 9.25603 27.9559 9.25568 27.9561 9.25606Z" fill="#242424"/>
</svg>
