<svg width="55" height="55" viewBox="0 0 55 55" fill="none" xmlns="http://www.w3.org/2000/svg">
<circle cx="27.5" cy="27.5" r="27.5" fill="#FFCDB8"/>
<path fill-rule="evenodd" clip-rule="evenodd" d="M30.625 32.6154C30.625 33.8899 29.5757 34.9231 28.2812 34.9231C26.9868 34.9231 25.9375 33.8899 25.9375 32.6154C25.9375 31.3409 26.9868 30.3077 28.2812 30.3077C29.5757 30.3077 30.625 31.3409 30.625 32.6154ZM29.0625 32.6154C29.0625 33.0402 28.7127 33.3846 28.2812 33.3846C27.8498 33.3846 27.5 33.0402 27.5 32.6154C27.5 32.1906 27.8498 31.8462 28.2812 31.8462C28.7127 31.8462 29.0625 32.1906 29.0625 32.6154Z" fill="#242424"/>
<path fill-rule="evenodd" clip-rule="evenodd" d="M25.1562 37.2308C25.1562 38.5053 24.1069 39.5385 22.8125 39.5385C21.5181 39.5385 20.4688 38.5053 20.4688 37.2308C20.4688 35.9563 21.5181 34.9231 22.8125 34.9231C24.1069 34.9231 25.1562 35.9563 25.1562 37.2308ZM23.5938 37.2308C23.5938 37.6556 23.244 38 22.8125 38C22.381 38 22.0312 37.6556 22.0312 37.2308C22.0312 36.8059 22.381 36.4615 22.8125 36.4615C23.244 36.4615 23.5938 36.8059 23.5938 37.2308Z" fill="#242424"/>
<path fill-rule="evenodd" clip-rule="evenodd" d="M28.2812 44.1538C29.5757 44.1538 30.625 43.1207 30.625 41.8462C30.625 40.5717 29.5757 39.5385 28.2812 39.5385C26.9868 39.5385 25.9375 40.5717 25.9375 41.8462C25.9375 43.1207 26.9868 44.1538 28.2812 44.1538ZM29.0625 41.8462C29.0625 42.271 28.7127 42.6154 28.2812 42.6154C27.8498 42.6154 27.5 42.271 27.5 41.8462C27.5 41.4213 27.8498 41.0769 28.2812 41.0769C28.7127 41.0769 29.0625 41.4213 29.0625 41.8462Z" fill="#242424"/>
<path fill-rule="evenodd" clip-rule="evenodd" d="M36.0938 37.2308C36.0938 38.5053 35.0444 39.5385 33.75 39.5385C32.4556 39.5385 31.4062 38.5053 31.4062 37.2308C31.4062 35.9563 32.4556 34.9231 33.75 34.9231C35.0444 34.9231 36.0938 35.9563 36.0938 37.2308ZM34.5312 37.2308C34.5312 37.6556 34.1815 38 33.75 38C33.3185 38 32.9688 37.6556 32.9688 37.2308C32.9688 36.8059 33.3185 36.4615 33.75 36.4615C34.1815 36.4615 34.5312 36.8059 34.5312 37.2308Z" fill="#242424"/>
<path fill-rule="evenodd" clip-rule="evenodd" d="M17.3438 8C16.9123 8 16.5625 8.3444 16.5625 8.76923C16.5625 9.19407 16.9123 9.53846 17.3438 9.53846H23.5938C24.8882 9.53846 25.9375 10.5717 25.9375 11.8462V17.2308H17.3438C16.0493 17.2308 15 18.264 15 19.5385V21.0769C15 22.0896 15.6625 22.95 16.5841 23.2607L17.3535 45.7699C17.396 47.0135 18.4322 48 19.6959 48H36.8666C38.1303 48 39.1665 47.0135 39.209 45.7699L40 22.6283V19.5385C40 18.264 38.9507 17.2308 37.6562 17.2308H27.5V11.8462C27.5 9.72198 25.7511 8 23.5938 8H17.3438ZM17.3438 18.7692H37.6562C38.0877 18.7692 38.4375 19.1136 38.4375 19.5385L38.4375 22.6025L38.3405 25.4392C38.1068 25.3929 37.8437 25.3488 37.5578 25.3136C36.4452 25.1767 34.9308 25.168 33.4599 25.7473C31.0419 26.6996 28.6456 26.6996 26.2276 25.7473C23.8126 24.7962 20.7962 24.6682 18.2194 25.3635L18.1517 23.3846H33.75C34.1815 23.3846 34.5313 23.0402 34.5313 22.6154C34.5313 22.1906 34.1815 21.8462 33.75 21.8462H17.3438C16.9123 21.8462 16.5625 21.5018 16.5625 21.0769V19.5385C16.5625 19.1136 16.9123 18.7692 17.3438 18.7692ZM37.364 26.8402C37.7192 26.8839 38.0333 26.9438 38.2871 27.0017L37.6474 45.7182C37.6332 46.1327 37.2878 46.4615 36.8666 46.4615H19.6959C19.2747 46.4615 18.9293 46.1327 18.9151 45.7182L18.2736 26.9512C20.5928 26.2305 23.4374 26.3054 25.6474 27.1758C28.4378 28.2747 31.2497 28.2747 34.0401 27.1758C35.1734 26.7294 36.3933 26.7207 37.364 26.8402Z" fill="#242424"/>
</svg>
