<svg width="55" height="55" viewBox="0 0 55 55" fill="none" xmlns="http://www.w3.org/2000/svg">
<circle cx="27.5" cy="27.5" r="27.5" fill="#FFCDB8"/>
<path fill-rule="evenodd" clip-rule="evenodd" d="M21.4161 10.5C21.4161 9.11929 22.4875 8 23.8092 8H25.4046C26.0175 8 26.5766 8.24071 27 8.63658C27.4234 8.24071 27.9825 8 28.5954 8H30.1908C31.5125 8 32.5839 9.11929 32.5839 10.5V11.4756C32.8334 11.3835 33.1019 11.3333 33.3816 11.3333H34.977C36.2987 11.3333 37.3701 12.4526 37.3701 13.8333V19.6667H39.6067C41.0166 19.6667 42.1209 20.9336 41.9893 22.4L39.7598 47.2444C39.7186 47.7026 39.3297 48.0393 38.8911 47.9963C38.4525 47.9533 38.1302 47.5471 38.1713 47.0888L40.4009 22.2444C40.4448 21.7556 40.0767 21.3333 39.6067 21.3333H37.3132C37.1904 21.9847 36.8747 22.5912 36.4203 23.1295C35.8319 23.8264 35.0056 24.4188 34.0257 24.8962C33.0417 25.3756 31.8941 25.7435 30.6537 25.9871C29.412 26.2309 28.0907 26.3475 26.7654 26.3319C25.4403 26.3164 24.1302 26.1688 22.9106 25.8956C21.6925 25.6227 20.5762 25.2269 19.6324 24.7216C18.6928 24.2185 17.9121 23.6002 17.38 22.8764C17.0308 22.4013 16.7903 21.881 16.6869 21.3333H14.3933C13.9233 21.3333 13.5552 21.7556 13.5991 22.2444L15.6931 45.5777C15.7315 46.006 16.0756 46.3333 16.4873 46.3333H34.977C35.4176 46.3333 35.7747 46.7064 35.7747 47.1666C35.7747 47.6268 35.4176 47.9999 34.977 47.9999H16.4873C15.2521 47.9999 14.2199 47.018 14.1046 45.7333L12.0107 22.4C11.8791 20.9336 12.9834 19.6667 14.3933 19.6667H16.6299V13.8333C16.6299 12.4526 17.7013 11.3333 19.023 11.3333H20.6184C20.8981 11.3333 21.1666 11.3835 21.4161 11.4756V10.5ZM18.2253 20.3631C18.2365 20.4338 18.2391 20.5072 18.232 20.5819C18.1953 20.9699 18.306 21.3995 18.6454 21.8613C18.992 22.3328 19.56 22.81 20.3601 23.2384C20.6831 23.4113 21.0362 23.5721 21.4161 23.7188V13.8333C21.4161 13.3731 21.0589 13 20.6184 13H19.023C18.5824 13 18.2253 13.3731 18.2253 13.8333V20.3631ZM22.9337 24.1926C23.0363 24.218 23.1402 24.2424 23.2452 24.266C24.1779 24.4749 25.178 24.6048 26.2023 24.6493V10.5C26.2023 10.0398 25.8451 9.66666 25.4046 9.66666H23.8092C23.3686 9.66666 23.0115 10.0398 23.0115 10.5V23.8333C23.0115 23.962 22.9836 24.0838 22.9337 24.1926ZM27.7977 24.6494C28.6765 24.6112 29.5395 24.51 30.359 24.3491C30.5732 24.3071 30.7831 24.2612 30.9885 24.2116V10.5C30.9885 10.0398 30.6314 9.66666 30.1908 9.66666H28.5954C28.1548 9.66666 27.7977 10.0398 27.7977 10.5V24.6494ZM32.5839 23.7189C32.8532 23.6148 33.1095 23.5036 33.3513 23.3857C34.1971 22.9736 34.8216 22.5034 35.2238 22.027C35.6197 21.558 35.7736 21.118 35.7747 20.7292V13.8333C35.7747 13.3731 35.4176 13 34.977 13H33.3816C32.9411 13 32.5839 13.3731 32.5839 13.8333V23.7189Z" fill="#242424"/>
<path d="M30.3776 37.4287C31.1269 35.7624 30.4413 33.7771 28.8462 32.9944C27.2512 32.2116 25.3508 32.9279 24.6015 34.5941C23.8523 36.2604 24.5379 38.2457 26.1329 39.0284C26.5316 39.2241 26.703 39.7204 26.5157 40.137C26.3284 40.5535 25.8533 40.7326 25.4545 40.5369C23.062 39.3628 22.0336 36.3848 23.1575 33.8855C24.2814 31.3861 27.1321 30.3117 29.5246 31.4859C31.9171 32.66 32.9455 35.6379 31.8216 38.1373C31.2728 39.3578 30.3107 40.2393 29.1934 40.6838C28.7817 40.8476 28.3208 40.6317 28.164 40.2016C28.0072 39.7715 28.2139 39.2901 28.6256 39.1263C29.3721 38.8293 30.0115 38.2428 30.3776 37.4287Z" fill="#242424"/>
</svg>
