<svg width="55" height="55" viewBox="0 0 55 55" fill="none" xmlns="http://www.w3.org/2000/svg">
<circle cx="27.5" cy="27.5" r="27.5" fill="#FFCDB8"/>
<path fill-rule="evenodd" clip-rule="evenodd" d="M14.25 16.8043C14.25 14.7033 15.9289 13 18 13H36C38.0711 13 39.75 14.7033 39.75 16.8043V16.9002C41.0439 17.2381 42 18.4297 42 19.8478C42 21.268 41.0411 22.461 39.7444 22.7969C39.7512 22.8528 39.752 22.9103 39.7461 22.9688L37.29 47.3165C37.2478 47.7346 36.8796 48.0388 36.4675 47.996C36.0554 47.9532 35.7556 47.5796 35.7978 47.1616L38.2461 22.8913H15.7539L18.0644 45.7948C18.1035 46.183 18.4258 46.4782 18.8105 46.4782H32.25C32.6642 46.4782 33 46.8189 33 47.2391C33 47.6593 32.6642 47.9999 32.25 47.9999H18.8105C17.6565 47.9999 16.6896 47.1143 16.5722 45.9497L14.2539 22.9688C14.248 22.9103 14.2488 22.8528 14.2556 22.7969C12.9589 22.461 12 21.268 12 19.8478C12 18.4297 12.9561 17.2381 14.25 16.9002V16.8043ZM36 14.5217C37.2426 14.5217 38.25 15.5437 38.25 16.8043H15.75C15.75 15.5437 16.7574 14.5217 18 14.5217H36ZM15 18.3261H39C39.8284 18.3261 40.5 19.0074 40.5 19.8478C40.5 20.6882 39.8284 21.3696 39 21.3696H15C14.1716 21.3696 13.5 20.6882 13.5 19.8478C13.5 19.0074 14.1716 18.3261 15 18.3261Z" fill="#242424"/>
<path d="M24 35.0652C24 33.3843 25.3431 32.0217 27 32.0217C28.6569 32.0217 30 33.3843 30 35.0652C30 36.3291 29.2404 37.4148 28.1561 37.8747C27.7739 38.0368 27.5936 38.4824 27.7534 38.8701C27.9131 39.2578 28.3525 39.4407 28.7346 39.2787C30.3574 38.5904 31.5 36.964 31.5 35.0652C31.5 32.5439 29.4853 30.5 27 30.5C24.5147 30.5 22.5 32.5439 22.5 35.0652C22.5 37.0541 23.7533 38.7441 25.5001 39.3704C25.8906 39.5105 26.3191 39.3028 26.4571 38.9066C26.5952 38.5104 26.3905 38.0757 25.9999 37.9357C24.8337 37.5175 24 36.3891 24 35.0652Z" fill="#242424"/>
</svg>
