<svg width="55" height="55" viewBox="0 0 55 55" fill="none" xmlns="http://www.w3.org/2000/svg">
<circle cx="27.5" cy="27.5" r="27.5" fill="#FFCDB8"/>
<path d="M36.8521 8.52619C36.3952 9.06335 34.9484 11.7491 33.5777 14.4349C31.8263 18.0415 30.9887 19.1158 30.3033 18.4252C29.1611 17.2741 27.1051 17.3509 25.9629 18.6554C25.3537 19.4995 24.1353 19.653 21.5463 19.346C18.0434 18.9623 17.815 19.0391 14.6929 22.4922C12.9415 24.4106 11.1139 26.0221 10.7332 26.0221C9.74326 26.0221 9.74326 30.7797 10.8093 33.4655C11.8754 36.3815 15.0737 39.6812 18.5003 41.4461C22.4601 43.518 32.5117 43.518 36.4714 41.4461C41.7256 38.6836 45 34.0027 45 29.0915C45 27.4801 44.0862 25.9453 41.9541 23.72C40.2788 22.0318 38.9081 20.3436 38.9081 19.9599C38.9081 19.653 39.9742 17.888 41.1926 16.1998C43.477 12.9769 44.1624 10.6748 42.7155 10.6748C42.2587 10.6748 40.7357 12.5932 39.2889 14.8953C37.7659 17.1974 36.2429 19.1158 35.9383 19.1158C35.5576 19.1158 34.6438 19.346 34.0346 19.5762C33.197 19.8832 33.8823 18.1182 35.9383 14.5116C37.9943 10.9818 38.832 8.7564 38.3751 8.29598C37.9182 7.83556 37.309 7.9123 36.8521 8.52619ZM30.3033 20.3436C30.6841 21.3412 31.3694 21.4946 33.8062 21.111C36.5475 20.6505 37.0806 20.804 39.0604 22.9526C40.2026 24.2571 41.1926 25.4849 41.1926 25.6384C41.1926 25.7919 35.0246 25.9453 27.4859 25.9453C18.348 25.9453 13.7791 25.7151 13.7791 25.178C13.7791 24.7176 14.4645 24.1804 15.226 23.9502C16.0636 23.72 16.9012 22.8759 17.0535 22.0318C17.4343 20.5738 17.8911 20.4971 21.6224 20.9575C24.973 21.4179 25.8867 21.2644 26.1913 20.3436C26.8005 18.7321 29.6942 18.8089 30.3033 20.3436ZM43.477 29.4752C43.477 33.3888 39.2127 38.9138 34.8723 40.5252C32.1309 41.5996 22.8408 41.5996 20.0995 40.5252C15.759 38.9138 11.4947 33.3888 11.4947 29.4752V27.5568H43.477V29.4752Z" fill="#242424"/>
<path d="M19.1095 22.9526C19.1095 23.3363 19.4903 23.72 19.871 23.72C20.3279 23.72 20.6325 23.3363 20.6325 22.9526C20.6325 22.4922 20.3279 22.1853 19.871 22.1853C19.4903 22.1853 19.1095 22.4922 19.1095 22.9526Z" fill="#242424"/>
<path d="M21.394 24.4874C21.394 24.871 21.7748 25.2547 22.1555 25.2547C22.6124 25.2547 22.917 24.871 22.917 24.4874C22.917 24.0269 22.6124 23.72 22.1555 23.72C21.7748 23.72 21.394 24.0269 21.394 24.4874Z" fill="#242424"/>
<path d="M32.8163 24.4874C32.8163 24.871 33.1971 25.2547 33.5778 25.2547C34.0347 25.2547 34.3393 24.871 34.3393 24.4874C34.3393 24.0269 34.0347 23.72 33.5778 23.72C33.1971 23.72 32.8163 24.0269 32.8163 24.4874Z" fill="#242424"/>
</svg>
