<svg width="55" height="55" viewBox="0 0 55 55" fill="none" xmlns="http://www.w3.org/2000/svg">
<circle cx="27.5" cy="27.5" r="27.5" fill="#FFCDB8"/>
<g clip-path="url(#clip0_39_21)">
<path d="M40.2681 9.32813C38.3228 9.96876 37.2291 10.375 37.1588 10.4688C36.8931 10.8359 37.1588 11.3906 37.5963 11.375C37.7369 11.375 39.1275 10.9453 40.6978 10.4219C42.2681 9.89845 43.5572 9.48438 43.5728 9.4922C43.6509 9.60938 43.9478 10.7422 43.9088 10.7813C43.8541 10.8359 25.7603 16.2813 25.6353 16.2813C25.565 16.2813 25.6041 15.8359 25.6978 15.4922C25.7213 15.3984 27.0884 14.9141 30.5025 13.7891C33.4556 12.8125 35.3228 12.1563 35.4244 12.0547C35.7447 11.7344 35.4947 11.125 35.0338 11.125C34.9244 11.125 32.7681 11.8047 30.2447 12.6406L25.6588 14.1484L25.4869 13.9609C25.1431 13.6094 24.8384 13.5859 23.9947 13.8594C23.1666 14.1172 22.94 14.3125 22.7916 14.8672C22.7213 15.125 22.6744 15.1563 22.1119 15.3359L21.5103 15.5313L21.2916 15.3203C20.9713 15.0156 20.6197 14.9766 19.9322 15.1875C18.9947 15.4688 18.8072 15.6016 18.5416 16.1172L18.3072 16.5859L17.6431 16.7969L16.9869 17.0156L16.8072 16.8516C16.3541 16.4453 16.1744 16.4375 15.1978 16.7578C14.3619 17.0391 14.0494 17.2656 13.9244 17.6953C13.8072 18.0703 13.7916 18.0859 13.0884 18.3047L12.5181 18.4766L12.2838 18.2813C11.9166 17.9688 11.6041 17.9531 10.8306 18.1953C10.0963 18.4219 9.76032 18.6797 9.67438 19.0625C9.64313 19.1875 9.61188 19.3281 9.59626 19.375C9.58063 19.4297 9.22907 19.5781 8.82282 19.7188C7.97126 20 7.65876 20.25 7.52595 20.7422C7.40095 21.1875 7.60407 21.8516 7.96345 22.1953C8.22907 22.4375 8.23688 22.4609 8.15095 22.7656C8.01032 23.2891 8.16657 23.8672 8.54157 24.2031C8.91657 24.5391 9.20563 24.6016 9.97907 24.4922C10.315 24.4453 10.6119 24.4063 10.6431 24.4063C10.7603 24.4063 10.8931 25.2734 10.8931 26.0469C10.8853 26.875 10.7134 27.5625 10.3072 28.375C10.2056 28.5781 10.065 28.9219 9.9947 29.1484L9.86188 29.5547L8.73688 29.5781C7.7447 29.6016 7.58845 29.6172 7.39313 29.7656C6.9947 30.0547 6.94001 30.2734 7.04938 31.1172C7.77595 36.7266 10.4791 41.4609 14.6197 44.3594L15.2369 44.7969L15.2759 45.5781C15.3072 46.2656 15.3384 46.3984 15.5416 46.7266C15.6822 46.9531 15.9244 47.1875 16.1509 47.3359L16.5338 47.5703L24.5416 47.5938C29.69 47.6016 32.6431 47.5859 32.8306 47.5313C33.2213 47.4297 33.7603 46.9531 33.94 46.5625C34.0494 46.3281 34.0884 46.0547 34.0884 45.5313V44.8281L34.69 44.4063C38.6431 41.6406 41.2759 37.3281 42.1744 32.1016C42.3775 30.9063 42.4088 30.3281 42.2681 30.0547C41.9947 29.5391 42.4869 29.5625 33.2681 29.5625C25.3619 29.5625 24.9322 29.5547 24.9869 29.4219C25.5572 28.0078 25.7291 27.2344 25.7291 25.9688C25.7291 24.875 25.5572 23.8906 25.2369 23.1016L25.0416 22.6172L25.3228 22.5781C25.4869 22.5547 30.1275 21.9688 35.6509 21.2813C41.1744 20.5938 45.8072 20.0078 45.9478 19.9844C46.315 19.9141 46.6666 19.6484 46.8463 19.3047C46.9947 19.0234 46.9947 18.9531 46.9009 18.1719C46.8541 17.7109 46.7447 17.1953 46.6666 17.0156C46.5181 16.6641 46.1822 16.3828 45.8306 16.3125C45.7134 16.2891 40.8853 16.9922 35.1119 17.875C29.3384 18.7578 24.5728 19.4844 24.5338 19.4844C24.4088 19.4844 24.5259 18.9297 24.7916 18.3047L25.0416 17.7109L34.5806 14.8438C39.8306 13.2656 44.2603 11.9219 44.4244 11.8516C44.8384 11.6719 45.1041 11.2656 45.1041 10.8125C45.1041 10.375 44.6978 9.03907 44.4791 8.76563C44.2838 8.50782 43.8619 8.31251 43.5259 8.32032C43.3853 8.32032 41.9166 8.77345 40.2681 9.32813ZM24.3931 15.9453C24.2994 16.3281 24.0728 16.9844 23.8931 17.4141C23.3384 18.7031 23.2759 19 23.2759 20.1875C23.2759 21.3828 23.3072 21.5469 23.8619 22.8672C24.4713 24.3047 24.5806 24.8359 24.5338 26.1563C24.4947 27.3828 24.4009 27.8281 23.94 28.8516L23.6509 29.5234L23.3228 29.5469C23.1431 29.5625 22.9947 29.5469 22.9947 29.5156C22.9947 29.4922 23.1509 29.1016 23.3463 28.6641C23.8541 27.4922 23.94 27.1016 23.94 25.9688C23.94 24.8672 23.8463 24.4063 23.4166 23.4297C22.9791 22.4531 22.7525 21.6953 22.6744 20.9297C22.5338 19.6016 22.7056 18.5703 23.315 17.1719C23.6431 16.4219 23.8619 15.7578 23.9478 15.2344C23.9634 15.1406 24.0806 15.0469 24.2447 14.9922C24.5025 14.9063 24.5181 14.9063 24.5416 15.0781C24.5572 15.1797 24.4869 15.5703 24.3931 15.9453ZM20.2994 16.4922C20.2681 16.6172 20.0806 17.0938 19.8697 17.5703C19.4088 18.625 19.2994 19.125 19.2994 20.2266C19.2994 21.2422 19.4166 21.75 19.9166 22.8984C20.4478 24.1328 20.5806 24.7266 20.5884 25.9297C20.5884 27.1328 20.4713 27.6953 20.0103 28.7891L19.6822 29.5625H19.3463C19.1588 29.5625 19.0103 29.5469 19.0103 29.5313C19.0103 29.5156 19.1744 29.1406 19.3697 28.7031C19.8775 27.5391 19.9791 27.1094 19.9791 25.9688C19.9791 24.8359 19.8853 24.4063 19.3697 23.2109C18.7838 21.8594 18.7369 21.6406 18.7369 20.1875C18.7369 18.7578 18.8228 18.3438 19.3775 17.125C19.6275 16.5781 19.6822 16.5156 19.9791 16.4063C20.1509 16.3438 20.315 16.2891 20.3306 16.2891C20.3463 16.2813 20.3306 16.375 20.2994 16.4922ZM22.2916 16.5547C22.2916 16.5703 22.2056 16.7734 22.1119 17C21.94 17.3828 21.8931 17.4219 21.5259 17.5469C21.2994 17.6172 21.1197 17.6641 21.1197 17.6484C21.1197 17.6328 21.19 17.4297 21.2838 17.1953C21.4322 16.8047 21.4713 16.7656 21.8072 16.6484C22.2213 16.5156 22.2916 16.5 22.2916 16.5547ZM45.7213 18.125C45.7759 18.5 45.8072 18.8047 45.7916 18.8203C45.7759 18.8281 40.9947 19.4375 35.1666 20.1641L24.5572 21.4844L24.5103 21.2109C24.4869 21.0547 24.4634 20.875 24.4556 20.8125C24.44 20.7188 26.3697 20.3984 34.9088 19.0859C40.6666 18.1953 45.4322 17.4688 45.5025 17.4609C45.6041 17.4531 45.6431 17.5938 45.7213 18.125ZM15.69 18.0156C15.3619 19.0391 15.3306 19.2969 15.3619 20.3828C15.4009 21.5625 15.4713 21.8438 16.0728 23.1953C16.5259 24.2266 16.6197 24.6953 16.6197 25.9297C16.6119 27.2109 16.5025 27.75 16.0259 28.8281L15.7056 29.5625H15.3697H15.0338L15.3853 28.7578C15.8853 27.6406 16.0416 26.9609 16.0416 25.9609C16.0416 24.9688 15.8853 24.2813 15.4166 23.2422C15.2369 22.8438 15.0181 22.2813 14.9322 21.9922C14.7369 21.3359 14.6588 19.7813 14.7838 19.0859C14.94 18.1641 15.0025 18.0313 15.2838 17.9375C15.69 17.8125 15.7525 17.8203 15.69 18.0156ZM17.7213 18.25C17.6275 18.6641 17.5494 18.7578 17.19 18.8516C16.9947 18.8984 16.7838 18.9531 16.7134 18.9844C16.5963 19.0313 16.5963 19 16.7213 18.6641C16.8463 18.3203 16.9009 18.2734 17.2525 18.1484C17.7759 17.9609 17.7838 17.9609 17.7213 18.25ZM21.5025 19.3359C21.4556 19.8828 21.3775 20.0234 21.1197 20.0313C21.0572 20.0313 20.8697 20.0547 20.7056 20.0859L20.4009 20.1328L20.4556 19.75C20.5494 19.0391 20.5416 19.0469 20.9791 18.9141C21.5884 18.7344 21.565 18.7188 21.5025 19.3359ZM11.3697 19.9922C11.3306 21 11.4947 21.7813 11.9634 22.8594C12.5338 24.1641 12.6119 24.4688 12.6588 25.6172C12.7134 26.8906 12.5806 27.625 12.1119 28.7266L11.7681 29.5234L11.44 29.5469C11.0494 29.5781 11.0416 29.6094 11.5259 28.5156C11.94 27.5781 12.065 26.9844 12.065 25.9688C12.065 24.9063 11.94 24.3672 11.4009 23.1016C10.9088 21.9609 10.7056 21.0234 10.7447 20.0625L10.7681 19.4609L11.0416 19.3594C11.19 19.3047 11.3306 19.2578 11.3541 19.2578C11.3775 19.25 11.3853 19.5859 11.3697 19.9922ZM13.5416 19.6797C13.5416 19.9297 13.5181 19.9531 13.2213 20.0313C13.0416 20.0781 12.815 20.1563 12.7134 20.1875C12.5416 20.2578 12.5259 20.2422 12.5259 20C12.5259 19.7422 12.5494 19.7266 12.9791 19.5781C13.565 19.3672 13.5416 19.3672 13.5416 19.6797ZM17.5259 20.2969C17.5259 20.5625 17.5181 20.5703 17.1588 20.6172C16.9478 20.6484 16.7213 20.6875 16.6509 20.7109C16.5416 20.7344 16.5103 20.6953 16.5103 20.5156C16.5103 20.3047 16.5494 20.2656 16.8463 20.1641C17.0259 20.0938 17.2525 20.0391 17.3541 20.0391C17.5025 20.0313 17.5259 20.0703 17.5259 20.2969ZM9.58845 20.8594C9.67438 21.0781 9.64313 21.1094 9.19782 21.2422C8.71345 21.3828 8.72126 21.3828 8.6822 21.1719C8.66657 21.0469 8.73688 20.9844 9.01032 20.8828C9.45563 20.7109 9.52595 20.7031 9.58845 20.8594ZM21.5416 21.4531C21.5728 21.6328 21.565 21.8047 21.5338 21.8359C21.5025 21.8672 21.315 21.9063 21.1275 21.9141C20.8072 21.9375 20.7681 21.9219 20.6822 21.7109C20.5181 21.3438 20.5494 21.2969 20.9869 21.2188C21.2056 21.1797 21.4166 21.1406 21.44 21.1328C21.4713 21.1328 21.5103 21.2734 21.5416 21.4531ZM17.6275 21.8047C17.6509 21.8438 17.69 21.9766 17.7134 22.1094C17.7681 22.3594 17.7681 22.3594 17.4088 22.3906C17.0728 22.4141 17.0338 22.3984 16.9322 22.2031C16.7447 21.8438 16.7603 21.8281 17.4634 21.7656C17.5338 21.7578 17.6119 21.7734 17.6275 21.8047ZM13.8931 22.625C13.94 22.8203 13.9244 22.8438 13.7525 22.8438C13.6431 22.8438 13.5025 22.8672 13.4322 22.8906C13.3541 22.9219 13.2759 22.8516 13.1978 22.6953C13.0728 22.4609 13.0728 22.4531 13.2447 22.4219C13.8072 22.2969 13.815 22.3047 13.8931 22.625ZM10.1041 23.0703C10.2213 23.2891 10.2213 23.2891 9.77595 23.3438C9.48688 23.3828 9.36188 23.375 9.31501 23.2969C9.19782 23.1094 9.2447 23.0078 9.46345 22.9766C9.91657 22.9063 10.0259 22.9219 10.1041 23.0703ZM22.2369 23.6406C22.6431 24.5703 22.6822 24.6875 22.7681 25.3359C22.8853 26.2969 22.7525 27.0781 22.2603 28.2344C22.0259 28.7734 21.815 29.2891 21.7838 29.3828C21.7447 29.5391 21.6822 29.5625 21.3384 29.5625C21.0572 29.5625 20.9556 29.5391 20.9869 29.4609C21.4791 28.3516 21.6431 27.7578 21.7447 26.7578C21.8541 25.6016 21.6666 24.0313 21.3228 23.2188C21.2759 23.125 21.3072 23.0781 21.4478 23.0547C21.9322 22.9609 21.94 22.9688 22.2369 23.6406ZM18.4478 24.0313C19.0259 25.4375 18.9947 26.7188 18.3463 28.1172C18.1822 28.4609 17.9947 28.9141 17.9166 29.1328L17.7838 29.5234L17.3931 29.5469L16.9947 29.5703L17.2603 28.9219C17.6822 27.8672 17.7916 27.2578 17.7916 25.9297C17.7916 25.0938 17.7525 24.6016 17.6588 24.2266C17.4947 23.5547 17.4947 23.5625 17.7056 23.5234C18.19 23.4297 18.2056 23.4375 18.4478 24.0313ZM14.6353 24.3828C14.7603 24.7109 14.8228 25.0781 14.8463 25.6953C14.8931 26.7188 14.8072 27.1484 14.2916 28.3359C14.0963 28.7734 13.9166 29.2266 13.8931 29.3438C13.8384 29.5469 13.8072 29.5625 13.4556 29.5625C13.2447 29.5625 13.0728 29.5469 13.0728 29.5313C13.0728 29.5078 13.1822 29.2188 13.315 28.8828C13.7369 27.8359 13.8775 26.9609 13.8228 25.6953C13.7994 25.0938 13.7603 24.4688 13.7291 24.3125C13.6822 24.0469 13.6978 24.0234 13.9009 23.9922C14.4556 23.9141 14.4556 23.9141 14.6353 24.3828ZM41.1978 30.7891C41.1978 30.8281 41.1275 31.2578 41.0416 31.75C40.1978 36.7656 37.815 40.7422 34.0416 43.4375L33.5025 43.8203L27.3541 43.8594L21.2056 43.8984L21.0338 44.0703C20.8228 44.2813 20.8072 44.6563 21.0025 44.875C21.1431 45.0313 21.2291 45.0313 27.0338 45.0313H32.9166V45.5391C32.9166 45.9844 32.8931 46.0781 32.7213 46.2422L32.5338 46.4375H24.6978C18.6588 46.4297 16.8306 46.4141 16.7369 46.3359C16.5259 46.1719 16.4322 45.9141 16.4322 45.4688V45.0313H17.6822C18.8306 45.0313 18.9478 45.0156 19.0884 44.875C19.2838 44.6797 19.2916 44.3203 19.0963 44.0859C18.9478 43.8984 18.9166 43.8984 17.44 43.875L15.94 43.8516L15.4634 43.5313C12.2213 41.3438 9.70563 37.625 8.70563 33.5469C8.44782 32.4688 8.22907 31.3047 8.22907 30.9609V30.7344H24.7134C33.7838 30.7344 41.1978 30.7578 41.1978 30.7891Z" fill="#242424"/>
</g>
<defs>
<clipPath id="clip0_39_21">
<rect width="40" height="40" fill="white" transform="translate(7 8)"/>
</clipPath>
</defs>
</svg>
