<svg width="180" height="70" viewBox="0 0 180 70" fill="none" xmlns="http://www.w3.org/2000/svg">
<path d="M176.111 38.7635C159.284 57.3693 126.919 70 89.7025 70C52.4862 70 20.1208 57.3693 3.29391 38.7635C24.8961 52.9069 55.6696 61.6804 89.7025 61.6804C123.735 61.6804 154.509 52.9069 176.111 38.7635Z" fill="#F17A47"/>
<path d="M29.1466 34.0307L29.1013 12.9489L18.6756 30.3959H16.0465L5.62081 13.2215V34.0307H0V2.22631H4.85021L17.4517 23.3081L29.8265 2.22631H34.6767L34.7221 34.0307H29.1466Z" fill="#F17A47"/>
<path d="M65.4134 9.7685L54.0811 35.9844C53.0235 38.6196 51.7391 40.4673 50.2282 41.5275C48.7172 42.6179 46.8889 43.1631 44.7433 43.1631C43.5346 43.1631 42.3409 42.9662 41.1623 42.5725C39.9838 42.1787 39.0168 41.6335 38.2613 40.9368L40.5277 36.7568C41.0717 37.2717 41.7063 37.6807 42.4316 37.9836C43.187 38.2865 43.9425 38.4379 44.698 38.4379C45.6952 38.4379 46.5112 38.1804 47.1458 37.6655C47.8106 37.1506 48.415 36.2873 48.9589 35.0757L49.3669 34.1216L38.8052 9.7685H44.698L52.3133 27.7153L59.9739 9.7685H65.4134Z" fill="#F17A47"/>
<path d="M91.3186 4.58892C88.9313 4.58892 87.7376 5.89139 87.7376 8.49632V9.95024H94.401V14.4937H87.9189V34.0307H82.2528V14.4937H78.2638V9.95024H82.2528V8.40545C82.2528 5.80052 83.0083 3.75595 84.5192 2.27174C86.0302 0.757247 88.1607 0 90.9107 0C93.0864 0 94.7938 0.439204 96.0328 1.31761L94.4463 5.58849C93.4793 4.92211 92.4367 4.58892 91.3186 4.58892Z" fill="#F17A47"/>
<path d="M108.74 34.3488C106.292 34.3488 104.086 33.8187 102.122 32.7585C100.158 31.6984 98.6164 30.2293 97.4982 28.3514C96.4103 26.4431 95.8664 24.2925 95.8664 21.8996C95.8664 19.5067 96.4103 17.3713 97.4982 15.4933C98.6164 13.6153 100.158 12.1463 102.122 11.0861C104.086 10.026 106.292 9.49589 108.74 9.49589C111.218 9.49589 113.439 10.026 115.403 11.0861C117.367 12.1463 118.894 13.6153 119.981 15.4933C121.1 17.3713 121.659 19.5067 121.659 21.8996C121.659 24.2925 121.1 26.4431 119.981 28.3514C118.894 30.2293 117.367 31.6984 115.403 32.7585C113.439 33.8187 111.218 34.3488 108.74 34.3488ZM108.74 29.4872C110.825 29.4872 112.548 28.7906 113.907 27.3972C115.267 26.0039 115.947 24.1714 115.947 21.8996C115.947 19.6279 115.267 17.7953 113.907 16.402C112.548 15.0087 110.825 14.312 108.74 14.312C106.655 14.312 104.932 15.0087 103.572 16.402C102.243 17.7953 101.578 19.6279 101.578 21.8996C101.578 24.1714 102.243 26.0039 103.572 27.3972C104.932 28.7906 106.655 29.4872 108.74 29.4872Z" fill="#F17A47"/>
<path d="M137.956 34.3488C135.508 34.3488 133.302 33.8187 131.338 32.7585C129.374 31.6984 127.832 30.2293 126.714 28.3514C125.626 26.4431 125.082 24.2925 125.082 21.8996C125.082 19.5067 125.626 17.3713 126.714 15.4933C127.832 13.6153 129.374 12.1463 131.338 11.0861C133.302 10.026 135.508 9.49589 137.956 9.49589C140.434 9.49589 142.655 10.026 144.619 11.0861C146.583 12.1463 148.11 13.6153 149.197 15.4933C150.316 17.3713 150.875 19.5067 150.875 21.8996C150.875 24.2925 150.316 26.4431 149.197 28.3514C148.11 30.2293 146.583 31.6984 144.619 32.7585C142.655 33.8187 140.434 34.3488 137.956 34.3488ZM137.956 29.4872C140.041 29.4872 141.764 28.7906 143.123 27.3972C144.483 26.0039 145.163 24.1714 145.163 21.8996C145.163 19.6279 144.483 17.7953 143.123 16.402C141.764 15.0087 140.041 14.312 137.956 14.312C135.871 14.312 134.148 15.0087 132.788 16.402C131.459 17.7953 130.794 19.6279 130.794 21.8996C130.794 24.1714 131.459 26.0039 132.788 27.3972C134.148 28.7906 135.871 29.4872 137.956 29.4872Z" fill="#F17A47"/>
<path d="M180 0.318043V34.0307H174.561V30.8957C173.624 32.0467 172.46 32.91 171.07 33.4855C169.71 34.061 168.199 34.3488 166.537 34.3488C164.21 34.3488 162.11 33.8338 160.237 32.804C158.393 31.7741 156.943 30.3202 155.885 28.4422C154.827 26.534 154.298 24.3531 154.298 21.8996C154.298 19.4461 154.827 17.2804 155.885 15.4024C156.943 13.5244 158.393 12.0705 160.237 11.0407C162.11 10.0108 164.21 9.49589 166.537 9.49589C168.139 9.49589 169.605 9.7685 170.934 10.3137C172.264 10.8589 173.397 11.6768 174.334 12.7672V0.318043H180ZM167.217 29.4872C168.577 29.4872 169.801 29.1843 170.889 28.5785C171.977 27.9425 172.838 27.0489 173.473 25.8979C174.107 24.7469 174.425 23.4141 174.425 21.8996C174.425 20.3851 174.107 19.0524 173.473 17.9013C172.838 16.7503 171.977 15.8719 170.889 15.2661C169.801 14.63 168.577 14.312 167.217 14.312C165.857 14.312 164.633 14.63 163.546 15.2661C162.458 15.8719 161.596 16.7503 160.962 17.9013C160.327 19.0524 160.01 20.3851 160.01 21.8996C160.01 23.4141 160.327 24.7469 160.962 25.8979C161.596 27.0489 162.458 27.9425 163.546 28.5785C164.633 29.1843 165.857 29.4872 167.217 29.4872Z" fill="#F17A47"/>
</svg>
